<?xml version="1.0" encoding="iso-8859-1"?>
<!-- Generator: Adobe Illustrator 19.0.0, SVG Export Plug-In . SVG Version: 6.00 Build 0)  -->
<svg xmlns="http://www.w3.org/2000/svg" xmlns:xlink="http://www.w3.org/1999/xlink" version="1.1" id="Layer_1" x="0px" y="0px" viewBox="0 0 512 512" style="enable-background:new 0 0 512 512;" xml:space="preserve" width="512px" height="512px">
<g>
	<g>
		<g>
			<path d="M415.687,136.083c-1.188-4.75-5.458-8.083-10.354-8.083h-96C247.104,128,205.666,174.729,151,260.958     c-2.25,3.542-2.208,8.073,0.083,11.573c2,3.031,5.354,4.802,8.917,4.802c0.563,0,1.125-0.042,1.688-0.135l266.667-42.667     c2.958-0.469,5.563-2.156,7.208-4.656c1.646-2.49,2.188-5.563,1.458-8.458L415.687,136.083z M351.758,225.182     c0.109-0.965,0.266-1.926,0.096-2.932c-0.979-5.813-6.542-9.76-12.271-8.771l-64,10.667c-5.813,0.969-9.75,6.458-8.771,12.271     c0.135,0.81,0.503,1.503,0.802,2.23l-85.656,13.707c44.292-66.99,79.583-103.021,127.375-103.021H397l16.5,65.969     L351.758,225.182z" fill="#70767A"/>
			<path d="M53.333,405.333c-5.896,0-10.667,4.771-10.667,10.667v21.333c0,5.896,4.771,10.667,10.667,10.667     C59.229,448,64,443.229,64,437.333V416C64,410.104,59.229,405.333,53.333,405.333z" fill="#70767A"/>
			<path d="M138.666,405.333c-5.896,0-10.667,4.771-10.667,10.667v21.333c0,5.896,4.771,10.667,10.667,10.667     s10.667-4.771,10.667-10.667V416C149.333,410.104,144.562,405.333,138.666,405.333z" fill="#70767A"/>
			<path d="M224,405.333c-5.896,0-10.667,4.771-10.667,10.667v21.333c0,5.896,4.771,10.667,10.667,10.667     c5.896,0,10.667-4.771,10.667-10.667V416C234.666,410.104,229.896,405.333,224,405.333z" fill="#70767A"/>
			<path d="M309.333,405.333c-5.896,0-10.667,4.771-10.667,10.667v21.333c0,5.896,4.771,10.667,10.667,10.667     c5.896,0,10.667-4.771,10.667-10.667V416C320,410.104,315.229,405.333,309.333,405.333z" fill="#70767A"/>
			<path d="M394.667,405.333c-5.896,0-10.667,4.771-10.667,10.667v21.333c0,5.896,4.771,10.667,10.667,10.667     c5.896,0,10.667-4.771,10.667-10.667V416C405.333,410.104,400.562,405.333,394.667,405.333z" fill="#70767A"/>
			<path d="M471.967,85.333h29.366c5.896,0,10.667-4.771,10.667-10.667C512,68.771,507.229,64,501.333,64h-192     c-127.25,0-208.188,123.646-286.604,261.385c-0.1,0.177-0.06,0.391-0.15,0.572l-0.121-0.061L1.125,368.562     c-1.646,3.302-1.479,7.229,0.458,10.375C3.541,382.083,6.979,384,10.666,384h448c3.688,0,7.125-1.917,9.083-5.063     c1.938-3.146,2.104-7.073,0.458-10.375l-20.01-40.02c1.049-25.458,20.378-46.964,45.969-50.439     c0.229-0.031,0.438-0.073,0.667-0.115c5.166-1.063,11.396-0.406,14.813-4.646c2.042-2.531,2.792-5.833,2.104-8.99L471.967,85.333     z M27.916,362.667l10.674-21.333h392.151l10.674,21.333H27.916z M427.437,320H50.396     C122.75,194.479,198.208,85.333,309.333,85.333h140.771l38.25,172.083C456.521,263.042,432.042,288.677,427.437,320z" fill="#70767A"/>
		</g>
	</g>
</g>
<g>
</g>
<g>
</g>
<g>
</g>
<g>
</g>
<g>
</g>
<g>
</g>
<g>
</g>
<g>
</g>
<g>
</g>
<g>
</g>
<g>
</g>
<g>
</g>
<g>
</g>
<g>
</g>
<g>
</g>
</svg>
